<?xml version="1.0" encoding="UTF-8"?>
<svg width="681.3" height="732" version="1.1" viewBox="0 0 681.3 732" xml:space="preserve" xmlns="http://www.w3.org/2000/svg"><g transform="translate(-177.6 -148)"><g fill="#f60"><path d="m456.3 813.5c22.48 5.439 57.46 5.472 66.35 4.712 26.88-2.298 56.21-9.668 70.32-16.82 4.049-2.055 7.62-3.738 9.745-5.363 5.162-3.947 9.875-5.625 5.312-8.312-11.3-6.658-34.15-14.6-46.74-17.69-0.0885-0.0217-0.1764-0.0431-0.2638-0.064-4.579-1.099-11.72-3.072-20.06-3.934-14.42-1.492-32.04-1.654-43.44-2.566-7.391-0.5913-32.5-5.698-55.32-13.45-20.19-6.856-38.15-16.13-46.61-21.13-9.408-5.56-44.39-29.2-67.99-59.39-19.36-24.76-33.41-59.45-35.96-67.17l-6.229-22.3c-0.682-2.441-0.6844-3.49-1.423-4.083-0.2737-0.2199-1.445 1.488-1.851 3.584-0.9144 4.717-2.925 15.64-3.309 29.22-0.5172 18.29 4.024 43.44 11.25 64.06 7.897 22.54 19.74 39.82 24.44 46.15 38.56 51.89 72.96 68.75 107.4 84.2"/><path d="m578.6 870.8c19.33-18.34 24.71-28.21 33.11-40.47 2.465-3.597 5.49-8.609 9.838-15.83 5.57-9.252 12.6-18.96 17.54-23.45 8.323-7.577 44.05-28.71 62.28-49.01 18.33-20.42 35.98-46.96 44.16-69.67 7.567-21 6.924-24.5 8.157-23.32 1.203 1.149 1.4 1.384 4.747 5.402 14.79 17.76 23.54 30.04 36.34 38.9 4.743 3.283 4.397 5.134 2.84 8.586 0 0-1.475 5.685-6.302 16.83-9.913 22.89-22.42 38.17-27.42 45.31-2.503 3.579-9.93 12.49-18.44 22.53-8.512 10.04-41.9 37.93-60.67 48.56-16.37 9.269-36.57 19.72-49.32 24.06l-26.08 8.874s-11.38 1.726-21.24 4.529c-16.24 4.614-12.62 0.7077-9.526-1.835z"/></g><path d="m227.2 323.3c18.77 9.821 17.13 9.384 21.61 10.26 4.474 0.873 17.24 0.6547 20.73-0.2182 3.492-0.873 12.88-3.383 16.7-5.565s13.87-9.448 22.7-17.9c8.948-8.566 35.63-35.74 51.61-42.45 15.57-6.536 21.13-10.41 34.83-14.22 14.07-3.912 40.13-5.313 49.54-2.932 8.315 2.103 20.31 3.725 32.41 10.49 4.49 2.513 9.175 5.153 12.45 7.509 5.146 3.702 7.719 6.892 7.719 6.892s10.94-6.719 15-8.13c4.763-1.652 13.16-2.942 20.24-0.9275 6.666 1.895 15.91 7.983 19.43 13.02 2.441 3.492 3.171 4.293 4.398 9.182 1.076 4.289-0.7716 15.12-4.707 20.06-3.935 4.938-10.11 12.35-18.06 16.51-7.948 4.167-8.874 3.009-8.874 3.009s2.57 28.02-8.342 47.23c-10.91 19.21-19.97 31.49-39.28 43.87-8.348 5.347-26.17 15.25-53.33 18.96-13.85 1.889-30.86 3.923-47.49 5.476-15.99 1.492-31.64 2.54-43.83 2.586-25.36 0.0954-38.4-4.102-32.78-5.739 5.62-1.637 49.38-16.2 52.82-17.68 3.394-1.455 6.711-4.419 6.493-6.766-0.3709-3.987-4.38-6.093-6.275-6.656-2.019-0.6002-13.48 1.419-17.9 2.728-4.4 1.304-28.64 8.212-53.45 12.29-23.27 3.829-46.84 4.764-59.42 2.131-28.04-5.868-45.44-20.15-44.46-33.9 0.9821-13.75 3.983-18.86 17.1-35.48 13.03-16.51 25.82-30.95 28.81-33.1 1.999-1.445 3.601-0.5456 3.601-0.5456z" fill="#dad8d3"/><ellipse cx="395.7" cy="324.7" rx="41.9" ry="42.42" fill="#4a4e4e"/><circle cx="405.6" cy="308.9" r="12.94" fill="#f9f9f9"/><g fill="#8a8d8d"><path d="m403.5 863.4c7.374-3.89 17.95-7.684 25.31-10.83 16.82-7.205 28.84-11.08 34.8-12.43 16.63-3.768 53.56-2.141 67.96-1.461 14.15 0.6677 55.34-13.1 58.39-13.99 2.222-0.6512-3.418 7.42-14.43 21.38-5.421 6.875-11.47 11.15-23.7 20.36-8.127 6.118-26.12 11.84-41.81 12.79-14.02 0.8488-31.71 1.168-42.48 0.0391-8.562-0.897-27.34-4.223-36.68-6.465-19.07-4.574-27.36-9.39-27.36-9.39z"/><path d="m744.9 483.7c6.095 3.87 12.46 10.85 18.31 16.96 10.74 11.21 24.37 19.6 37.24 28.4 5.57 3.81 21.88 11.1 22.5 12.58 1.147 2.788 2.294 6.057 4.342 11.2 3.612 9.072 6.731 21.44 7.172 29.63 0.8222 15.25 2.418 32.95 0.3443 49.62-1.404 11.28-2.467 20.78-5.476 28.71-1.278 3.369-4.189 13.64-5.031 15.94-2.421 6.595-3.11 5.242-8.371 1.669-5.282-3.587-18.87-12.78-26.43-21.34-7.609-8.605-14.59-15.68-20.83-23.43-6.169-7.654-17.38-27.85-22.2-37.33-2.434-4.787-5.458-12.63-8.289-21.65-3.147-10.03-4.106-22.58-4.671-30.06-0.4182-5.538 0.329-14.99 0.8188-23.46 0.6538-11.3 4.341-21.63 4.788-23.66 0.7198-3.275 3.074-14.4 5.787-13.78z"/><path d="m715.3 378.1c21.7 7.681 45.8 13.54 69.59 14.65 6.996 0.3252 21.03-1.835 21.86-0.4615 2.588 4.263 18.3 25.45 25.71 38.44 7.565 13.27 16.13 35.83 20.12 52.15 2.729 11.17 3.959 16.34 4.822 24.78 0.3665 3.584 1.557 12.37 1.534 14.81-0.0426 4.59-0.397 4.414-3.798 3.849-6.288-1.044-13.23-3.897-23.83-8.158-10.66-4.285-20.26-10.52-29.1-15.11-10.73-5.568-26.82-20.59-34.59-27.53-8.454-7.559-24.58-29.18-30.24-42.26-2.049-4.741-5.933-12.7-9.286-20.49-4.476-10.4-8.35-20.49-8.951-22.22-1.002-2.896-4.848-12.28-3.85-12.44z"/><path d="m234 298.6c22.58-39.46 32.09-50.74 34.65-54.94 8.856-14.54 40.8-46.43 53.16-54.86 12.44-8.481 35.81-23.99 66.9-33.72 24.54-7.68 60.17-8.756 85.19-5.093 25.18 3.687 32.27 7.169 43.83 13.12 3.26 1.678 15.76 6.597 15.22 8.758-0.5401 2.16-2.064 2.778-3.8 4.051-5.028 3.687-28.63 21.31-42.92 42.1-9.465 13.76-6.602 16.53-9.494 15.6s-15.7-4.572-34.48-6.656c-20.12-2.232-57.79 0.28-86.7 17.74-27.18 16.42-45.08 34.29-59.26 47.78-10.15 9.658-26.3 23.3-48.07 15.6-8.081-2.856-12.11-5.346-13.7-6.932-0.8312-0.8295-0.525-2.562-0.525-2.562z"/><path d="m504.9 237.4c12.34-19.87 13.52-21.41 27.26-32.28 5.728-4.53 17.05-12.19 25.46-12.35 8.411-0.1543 39.2 4.861 56.71 13.97s36.57 21.14 47.84 31.79c11.27 10.65 12.89 11.03 9.954 12.35-3.393 1.518-18.75 8.102-26.23 10.42-7.485 2.315-34.57 9.028-52.62 8.333-18.06-0.6944-19.16 0.5594-21.01-2.141s-11.85-12.34-19.27-16.15c-9.332-4.783-17.31-8.013-28.94-9.028-7.076-0.6172-12.03-0.8213-16.78 0.1543-1.529 0.3136-5.393 2.042-5.266 0.9453 0.0473-0.4083 0.866-2.076 0.866-2.076z"/><path d="m619.4 297.3c22.96-7.359 45.82-14.65 67.75-24.69 6.352-2.951 18.8-10.74 20.1-9.799 4.039 2.925 23.97 16.78 35.3 26.54 12.89 11.11 30.58 30.07 40.28 42.44 10.11 12.89 19.52 27.32 22.53 31.55 2.937 4.134 1.347 4.222-2.007 5.021-6.201 1.477-12.65 1.514-24.07 1.698-11.48 0.1851-23.08-1.256-32.87-3.086-9.741-1.822-31.75-9.872-41.45-13.68-10.29-4.039-35.55-17.99-46.21-25.21-10.93-7.401-36.11-27.01-37.65-28.24-1.543-1.235-2.552-2.005-1.698-2.546z"/><path d="m581.2 617.5c21.44-27.88 42.99-36.59 66.25-42.25 9.339-2.272 22.54-2.317 34.46 0.3866 11.69 2.652 22.13 7.988 27.92 12.61 6.291 5.028 14.36 12.81 18.5 25.29 2.512 7.576 3.408 19.83 2.001 28.08-3.757 22.03-17.11 48.71-30.62 65.75-11.5 14.5-39.38 44.75-68 50.88-8.825 1.888-17.47 4.382-28.27 0.9704-22.74-7.184-51.83-17.62-61.98-19.47-5.55-1.01-15.9-3.805-24.55-4.592-17.32-1.575-37.8-1.838-43.58-1.033-12.82 1.783-1.199-11.1 9.625-19.12 11.8-8.75 11.95-15.56 4.85-14.43-6.188 0.9864-14.33 3.295-19.4 6.38-4.311 2.621-10.36 6.005-13.92 10.65-2.838 3.701-8.034 12.09-10.64 12.26-1.021 0.0689-1.924-3.619-1.871-7.122 0.2171-14.42 7.985-26.74 16.73-33.49s20.69-14.41 33.25-16.75c12.06-2.25 30-2.75 43 2.25s21.31 8.062 29.25 12.75c3.666 2.165 6.079 3.085 2.438-8-3.666-11.16-0.6008-29.82 4.562-42.75 4.963-12.43 10-19.25 10-19.25z"/><path d="m704.7 473.2c2.875-17.75 5.575-25.44 4.825-44.19-0.482-12.04-4.777-21.2-8.877-29.98-9.564-20.48-22.93-33.48-26.5-36.64-16.75-14.88-41.44-28.64-61.12-26.88-19.5 1.75-32.91 8.603-46.36 26.09-3.557 4.626-10.11 22.38-9.854 34.17 0.2064 9.559 3.134 20.45 7.966 30.24 4.198 8.5 13.41 18.18 25.51 26.23 14.34 9.529 32.48 17.02 47.24 21.27l26.79 7.722s15.28 4.416 26.04 6.032c3.234 0.4859 10.55 3.664 12.04-1.848 1.603-5.929 2.303-12.22 2.303-12.22z"/><path d="m366.9 575.5c0.0876-13.61 0.2378-19.14 2.312-24.91 0.9694-2.695 2.967-9.254 5.71-14.04 3.175-5.54 6.49-11.41 8.869-14.55 4.731-6.238 8.317-11.71 18.31-19.87 7.504-6.132 17.23-11.03 24.62-13.98 15.66-6.264 29.38-6.205 49.85-7.98 27.81-2.412 42.84-5.385 58.73-10.74 20.12-6.778 24.29-17 35.24-9.613 3.159 2.13 14.07 6.974 27.46 13.29 18.02 8.502 40.67 19.17 56.23 24.69 27.12 9.625 31.25 6.75 27 12.88s-16.96 23.95-34.75 35.88c-17.23 11.55-42.98 20.12-78.53 13.69-31.94-5.779-40.87-10.04-58.13-10.93-4.045-0.209-13.02-0.338-21.59 0.9849-19.12 2.95-31.28 10.15-42.71 15.48-4.256 1.983-6.493 3.84-10.56 6.143-2.233 1.266-6.857 3.989-8.659 4.869-10.04 4.904-17.69 12.92-13.57 3.422 2.133-4.911 8.476-15.2 15.31-24.51 6.385-8.707 13.87-15.74 16.58-17.44 6.083-3.822 2.842-13.77-8.274-8.08-12.96 6.632-24.23 17.79-33.48 36.54-2.581 5.232-4.994 9.027-7.061 14.05-1.506 3.661-2.327 6.181-3.125 7.991-1.975 4.479-2.214 4.775-3.704 0.2867-0.971-2.925-1.507-6.061-1.703-10.23-0.5007-10.62 1.822-25.64 14.39-41.08 17.5-21.5 23.47-28.44 9.312-23.94-4.056 1.291-8.123 5.055-11.44 7.75-8.497 6.909-13.38 15.07-16.94 19.13-2.173 2.476-7.432 14.12-8.78 18.09-3.39 9.984-6.955 21.83-6.923 16.75z"/><path d="m214.8 519.5c-4.241 15.76-6.15 28.3-7.463 38.61-3.159 24.79-2.412 33.21-2.412 33.21l48.19 31.94s0.7787-19.67-0.7507-41.38c-1.61-22.85-8.229-46.58-13.94-56.31-8.418-14.35-14.44-19.81-17.57-19.38-1.398 0.191-2.492 3.146-3.303 5.134-2.121 5.202-2.75 8.188-2.75 8.188z"/><path d="m205.2 619c28.84 15.82 47.58 33.61 53.35 40.25 10.25 11.79 19.12 35.43 24.95 48.33s18.08 28.83 20.15 31.25c1.508 1.757 5.524 5.038-12.15 3.094-17.68-1.945-31.68-1.945-44.63-15.69-6.975-7.405-16.08-19.51-23.4-33.41-6.54-12.42-10.79-26.62-13.29-37.16-5.53-23.38-4.987-36.65-4.987-36.65z"/><path d="m257.1 758.7c31.86-1.647 54.51 8.1 63.15 9.742 15.31 2.912 46.74 26.31 58.38 34.82 11.43 8.359 43.58 21.73 46.62 22.66 2.213 0.6823 1.085 1.404-14.91 9.187-15.99 7.784-18.73 7.652-34.01 8.586-10.15 0.6209-30.99-8.541-44.6-16.4-12.16-7.022-26.05-16.05-34.42-22.93-6.647-5.47-15.93-14.25-22.49-21.27-13.38-14.33-17.72-24.39-17.72-24.39z"/><path d="m320.9 476.2c-4.347 3.967-6.909 6.839-9.176 9.631-7.664 9.439-8.58 11.12-12.82 17.87-5.5 8.75-10.31 35.97-4.055 48.97 6.435 13.38 11.46 11.77 11.46 11.77s-0.9001-11.1 0.841-21.49c1.009-6.022 5.677-13.83 9.532-20.5 3.929-6.797 8.005-11.22 8.762-11.47 1.005-0.335 0.1822 4.776 1.175 12.31 0.489 3.713 1.374 9.206 3.18 12.81 4.172 8.321 6.851 8.851 6.851 8.851s-0.25-18.75 13.75-37c4.703-6.13 9.547-12.73 13.26-16.92 7.349-8.291 11.83-11.43 12.9-12.7 0.9502-1.13 4.23-4.936-3.666-4.534-13.98 0.7117-52 2.406-52 2.406z"/></g></g></svg>
